<svg width="120" height="42" viewBox="0 0 120 42" fill="none" xmlns="http://www.w3.org/2000/svg">
<path d="M37.0888 42H19.9991C17.2 42 14.8428 39.7911 14.8428 36.8459V19.9109C14.8428 17.1129 17.0526 14.7567 19.9991 14.7567H37.0888C39.888 14.7567 42.2452 16.9657 42.2452 19.9109V36.9931C42.0979 39.7911 39.888 42 37.0888 42Z" fill="#EB4B4D"/>
<g filter="url(#filter0_b_1104_1223)">
<path d="M23.173 28.3784H5.37122C2.30195 28.3784 0 26.0774 0 23.1629V5.36888C0 2.30095 2.30195 0 5.37122 0H23.173C26.0888 0 28.5442 2.30095 28.5442 5.36888V23.1629C28.3907 26.0774 26.0888 28.3784 23.173 28.3784Z" fill="white" fill-opacity="0.5"/>
<path d="M23.173 28.1284H5.37122C2.43513 28.1284 0.25 25.9345 0.25 23.1629V5.36888C0.25 2.43912 2.43992 0.25 5.37122 0.25H23.173C25.9555 0.25 28.2942 2.44377 28.2942 5.36888V23.1562C28.1443 25.9423 25.9464 28.1284 23.173 28.1284Z" stroke="#B2B4C0" stroke-width="0.5"/>
</g>
<path fill-rule="evenodd" clip-rule="evenodd" d="M57.1101 16.8054C56.4251 17.0324 55.9684 17.4865 55.6258 18.054C55.2833 18.6216 55.1691 19.4162 55.1691 20.2108V21.3459H52.6572V23.5027H55.1691V31.9027H58.1377V23.5027H60.878H61.563H63.8466V31.9027H66.8152V21.3459H66.3584H63.8466H61.563H60.7638H58.0235V20.5513C58.0235 20.0973 58.1377 19.6432 58.2519 19.4162C58.3661 19.1892 58.7086 18.9621 58.937 18.8486C59.2795 18.7351 59.622 18.7351 60.0787 18.7351H60.0787H66.701V16.3513H59.3937C58.4802 16.3513 57.7952 16.4648 57.1101 16.8054ZM80.9732 21.6864C80.5165 21.3459 80.0598 21.0054 79.4889 20.8918C78.918 20.6648 78.233 20.6648 77.5479 20.6648C76.7487 20.6648 76.0636 20.7783 75.3785 21.0054C74.6935 21.2324 74.2368 21.5729 73.7801 22.027C73.3234 22.481 72.9808 22.9351 72.6383 23.3891C72.5241 23.6162 72.4099 23.8432 72.2958 24.1837V21.0054H69.3272V32.1297H72.2958V25.5459C72.4099 25.2054 72.5241 24.9783 72.8666 24.6378C73.2092 24.1837 73.7801 23.8432 74.3509 23.5027C75.036 23.1621 75.7211 23.0486 76.4061 23.0486C77.4337 23.0486 78.233 23.2756 78.6897 23.7297C79.1464 24.1837 79.3747 24.8648 79.3747 25.7729V32.0162H82.3433V25.2054C82.3433 24.4108 82.2291 23.7297 82.0008 23.1621C81.7724 22.481 81.4299 22.027 80.9732 21.6864ZM91.5916 20.5513C93.0759 20.5513 94.2177 20.7783 95.2452 21.2324C96.2728 21.7999 96.9579 22.481 97.0721 23.2756C97.5288 24.1837 97.7571 25.3189 97.643 26.7945H87.0245C87.1387 27.3621 87.367 27.9297 87.7096 28.3837C88.0521 28.8378 88.623 29.2918 89.1939 29.5189C89.7648 29.8594 90.564 29.9729 91.3632 29.9729C92.2766 29.9729 93.0759 29.8594 93.6468 29.5189C94.3318 29.1783 94.6744 28.7243 94.9027 28.2702H97.7571C97.643 29.0648 97.4146 29.7459 96.8437 30.3135C96.387 30.881 95.702 31.3351 94.7885 31.6756C93.9893 32.0162 92.8475 32.2432 91.5916 32.2432C90.2215 32.2432 88.9655 32.0162 87.8237 31.5621C86.7962 31.1081 85.8827 30.5405 85.3119 29.6324C84.741 28.7243 84.3984 27.7027 84.3984 26.454C84.3984 25.2054 84.741 24.1837 85.3119 23.2756C85.8827 22.3675 86.7962 21.6864 87.8237 21.2324C88.8513 20.7783 90.1073 20.5513 91.5916 20.5513ZM88.8513 23.5026C88.2805 23.9567 87.8237 24.5243 87.5954 25.2054V25.3189H95.1311C95.1311 24.5243 94.7885 23.9567 94.1035 23.5026C93.4184 23.0486 92.6192 22.8216 91.4774 22.8216C90.4498 22.8216 89.5364 23.0486 88.8513 23.5026ZM103.466 16.3513H100.497V31.9027H103.466V16.3513ZM112.029 29.0648L115.797 20.8919V21.0054H118.994L112.144 34.9675C111.915 35.3081 111.23 35.9892 111.116 35.9892C110.659 36.3297 109.974 36.5567 109.289 36.5567H108.376H100.497V34.1729H107.805C109.091 34.1729 109.638 33.6584 109.862 33.3392C109.86 33.3625 109.86 33.3783 109.86 33.3783L109.974 33.1513L110.659 31.9027L105.293 20.8919H108.376L112.029 29.0648ZM109.862 33.3392C109.868 33.2742 109.89 33.1513 109.974 33.1513C109.952 33.1957 109.917 33.2617 109.862 33.3392Z" fill="#2A2C38"/>
<defs>
<filter id="filter0_b_1104_1223" x="-5" y="-5" width="38.5444" height="38.3784" filterUnits="userSpaceOnUse" color-interpolation-filters="sRGB">
<feFlood flood-opacity="0" result="BackgroundImageFix"/>
<feGaussianBlur in="BackgroundImage" stdDeviation="2.5"/>
<feComposite in2="SourceAlpha" operator="in" result="effect1_backgroundBlur_1104_1223"/>
<feBlend mode="normal" in="SourceGraphic" in2="effect1_backgroundBlur_1104_1223" result="shape"/>
</filter>
</defs>
</svg>
